<svg xmlns="http://www.w3.org/2000/svg" xmlns:xlink="http://www.w3.org/1999/xlink" width="1080" zoomAndPan="magnify" viewBox="0 0 810 1012.49997" height="1350" preserveAspectRatio="xMidYMid meet" version="1.0"><defs><g/><clipPath id="bcc60018aa"><path d="M 298 738 L 420 738 L 420 860 L 298 860 Z M 298 738 " clip-rule="nonzero"/></clipPath><clipPath id="81e77d09c3"><path d="M 288.601562 750.003906 L 408.085938 728.304688 L 429.785156 847.789062 L 310.300781 869.488281 Z M 288.601562 750.003906 " clip-rule="nonzero"/></clipPath><clipPath id="cc630c6f4e"><path d="M 288.601562 750.003906 L 408.085938 728.304688 L 429.785156 847.789062 L 310.300781 869.488281 Z M 288.601562 750.003906 " clip-rule="nonzero"/></clipPath><clipPath id="f6bc4a7ad2"><path d="M 288.601562 750.003906 L 408.085938 728.304688 L 429.785156 847.789062 L 310.300781 869.488281 Z M 288.601562 750.003906 " clip-rule="nonzero"/></clipPath><clipPath id="473fb16dc1"><path d="M 307 747 L 411 747 L 411 851 L 307 851 Z M 307 747 " clip-rule="nonzero"/></clipPath><clipPath id="8cf9b4b71f"><path d="M 288.601562 750.003906 L 408.085938 728.304688 L 429.785156 847.789062 L 310.300781 869.488281 Z M 288.601562 750.003906 " clip-rule="nonzero"/></clipPath><clipPath id="4ca2df032d"><path d="M 288.601562 750.003906 L 408.085938 728.304688 L 429.785156 847.789062 L 310.300781 869.488281 Z M 288.601562 750.003906 " clip-rule="nonzero"/></clipPath><clipPath id="0f95898e16"><path d="M 288.601562 750.003906 L 408.085938 728.304688 L 429.785156 847.789062 L 310.300781 869.488281 Z M 288.601562 750.003906 " clip-rule="nonzero"/></clipPath><clipPath id="8af0799145"><path d="M 307 750 L 411 750 L 411 851 L 307 851 Z M 307 750 " clip-rule="nonzero"/></clipPath><clipPath id="88a47657fb"><path d="M 288.601562 750.003906 L 408.085938 728.304688 L 429.785156 847.789062 L 310.300781 869.488281 Z M 288.601562 750.003906 " clip-rule="nonzero"/></clipPath><clipPath id="fbe5414a59"><path d="M 288.601562 750.003906 L 408.085938 728.304688 L 429.785156 847.789062 L 310.300781 869.488281 Z M 288.601562 750.003906 " clip-rule="nonzero"/></clipPath><clipPath id="ee7b5b8d0b"><path d="M 288.601562 750.003906 L 408.085938 728.304688 L 429.785156 847.789062 L 310.300781 869.488281 Z M 288.601562 750.003906 " clip-rule="nonzero"/></clipPath><clipPath id="2f638c2c67"><path d="M 338 765 L 383 765 L 383 840 L 338 840 Z M 338 765 " clip-rule="nonzero"/></clipPath><clipPath id="ce932014da"><path d="M 288.601562 750.003906 L 408.085938 728.304688 L 429.785156 847.789062 L 310.300781 869.488281 Z M 288.601562 750.003906 " clip-rule="nonzero"/></clipPath><clipPath id="8efd99075f"><path d="M 288.601562 750.003906 L 408.085938 728.304688 L 429.785156 847.789062 L 310.300781 869.488281 Z M 288.601562 750.003906 " clip-rule="nonzero"/></clipPath><clipPath id="bf8f96c6d2"><path d="M 288.601562 750.003906 L 408.085938 728.304688 L 429.785156 847.789062 L 310.300781 869.488281 Z M 288.601562 750.003906 " clip-rule="nonzero"/></clipPath><clipPath id="c4a13502aa"><path d="M 337 761 L 382 761 L 382 836 L 337 836 Z M 337 761 " clip-rule="nonzero"/></clipPath><clipPath id="65b4a87b0b"><path d="M 288.601562 750.003906 L 408.085938 728.304688 L 429.785156 847.789062 L 310.300781 869.488281 Z M 288.601562 750.003906 " clip-rule="nonzero"/></clipPath><clipPath id="a10527ecb3"><path d="M 288.601562 750.003906 L 408.085938 728.304688 L 429.785156 847.789062 L 310.300781 869.488281 Z M 288.601562 750.003906 " clip-rule="nonzero"/></clipPath><clipPath id="875f8668ce"><path d="M 288.601562 750.003906 L 408.085938 728.304688 L 429.785156 847.789062 L 310.300781 869.488281 Z M 288.601562 750.003906 " clip-rule="nonzero"/></clipPath><clipPath id="225fcfe6bf"><path d="M 306 751 L 334 751 L 334 779 L 306 779 Z M 306 751 " clip-rule="nonzero"/></clipPath><clipPath id="3b3055ca78"><path d="M 288.601562 750.003906 L 408.085938 728.304688 L 429.785156 847.789062 L 310.300781 869.488281 Z M 288.601562 750.003906 " clip-rule="nonzero"/></clipPath><clipPath id="85ce4e43fc"><path d="M 288.601562 750.003906 L 408.085938 728.304688 L 429.785156 847.789062 L 310.300781 869.488281 Z M 288.601562 750.003906 " clip-rule="nonzero"/></clipPath><clipPath id="558bd68937"><path d="M 288.601562 750.003906 L 408.085938 728.304688 L 429.785156 847.789062 L 310.300781 869.488281 Z M 288.601562 750.003906 " clip-rule="nonzero"/></clipPath><clipPath id="70ecf53223"><path d="M 0.6875 0.769531 L 459.882812 0.769531 L 459.882812 574.597656 L 0.6875 574.597656 Z M 0.6875 0.769531 " clip-rule="nonzero"/></clipPath><clipPath id="d0d8c2f02b"><path d="M 9 53 L 458 53 L 458 574.597656 L 9 574.597656 Z M 9 53 " clip-rule="nonzero"/></clipPath><clipPath id="4d9f996b02"><path d="M 0.6875 0.769531 L 459.882812 0.769531 L 459.882812 550 L 0.6875 550 Z M 0.6875 0.769531 " clip-rule="nonzero"/></clipPath><clipPath id="e99364db59"><rect x="0" width="460" y="0" height="575"/></clipPath><clipPath id="7d8d8be3c1"><path d="M 28 477 L 62 477 L 62 507 L 28 507 Z M 28 477 " clip-rule="nonzero"/></clipPath><clipPath id="f80cfeb4f9"><path d="M 29.589844 476 L 63.109375 480.839844 L 59.109375 508.558594 L 25.585938 503.722656 Z M 29.589844 476 " clip-rule="nonzero"/></clipPath><clipPath id="9f8adc776a"><path d="M 29.589844 476 L 63.109375 480.839844 L 59.109375 508.558594 L 25.585938 503.722656 Z M 29.589844 476 " clip-rule="nonzero"/></clipPath><clipPath id="1cdd73dd5a"><path d="M 29.589844 476 L 63.109375 480.839844 L 59.109375 508.558594 L 25.585938 503.722656 Z M 29.589844 476 " clip-rule="nonzero"/></clipPath><clipPath id="0361320ea1"><rect x="0" width="60" y="0" height="41"/></clipPath><clipPath id="6132982c06"><rect x="0" width="461" y="0" height="575"/></clipPath><clipPath id="63844e964b"><path d="M 1.132812 0.695312 L 469.449219 0.695312 L 469.449219 585.925781 L 1.132812 585.925781 Z M 1.132812 0.695312 " clip-rule="nonzero"/></clipPath><clipPath id="1e99ba72a8"><path d="M 9 54 L 466 54 L 466 585.925781 L 9 585.925781 Z M 9 54 " clip-rule="nonzero"/></clipPath><clipPath id="70859847ba"><path d="M 0.132812 0.695312 L 468.449219 0.695312 L 468.449219 561 L 0.132812 561 Z M 0.132812 0.695312 " clip-rule="nonzero"/></clipPath><clipPath id="1b895538a1"><rect x="0" width="469" y="0" height="586"/></clipPath><clipPath id="79c7853e39"><path d="M 29 486 L 64 486 L 64 517 L 29 517 Z M 29 486 " clip-rule="nonzero"/></clipPath><clipPath id="67a9e0340d"><path d="M 30.605469 485.371094 L 64.796875 490.304688 L 60.714844 518.574219 L 26.527344 513.640625 Z M 30.605469 485.371094 " clip-rule="nonzero"/></clipPath><clipPath id="fc718ac0da"><path d="M 30.605469 485.371094 L 64.796875 490.304688 L 60.714844 518.574219 L 26.527344 513.640625 Z M 30.605469 485.371094 " clip-rule="nonzero"/></clipPath><clipPath id="e4c83eedec"><path d="M 30.605469 485.371094 L 64.796875 490.304688 L 60.714844 518.574219 L 26.527344 513.640625 Z M 30.605469 485.371094 " clip-rule="nonzero"/></clipPath><clipPath id="88f5e0b5ba"><rect x="0" width="61" y="0" height="43"/></clipPath><clipPath id="ada62ecb22"><rect x="0" width="470" y="0" height="586"/></clipPath><clipPath id="d16daa1877"><path d="M 88 657 L 230 657 L 230 799 L 88 799 Z M 88 657 " clip-rule="nonzero"/></clipPath><clipPath id="f7e7fbeddb"><path d="M 63.3125 700.203125 L 187.023438 632.703125 L 254.527344 756.417969 L 130.8125 823.917969 Z M 63.3125 700.203125 " clip-rule="nonzero"/></clipPath><clipPath id="7abf072f2b"><path d="M 63.3125 700.203125 L 187.023438 632.703125 L 254.527344 756.417969 L 130.8125 823.917969 Z M 63.3125 700.203125 " clip-rule="nonzero"/></clipPath><clipPath id="180b285bf4"><path d="M 63.3125 700.203125 L 187.023438 632.703125 L 254.527344 756.417969 L 130.8125 823.917969 Z M 63.3125 700.203125 " clip-rule="nonzero"/></clipPath><clipPath id="a799b51e54"><path d="M 99 668 L 219 668 L 219 789 L 99 789 Z M 99 668 " clip-rule="nonzero"/></clipPath><clipPath id="7233a67a10"><path d="M 63.3125 700.203125 L 187.023438 632.703125 L 254.527344 756.417969 L 130.8125 823.917969 Z M 63.3125 700.203125 " clip-rule="nonzero"/></clipPath><clipPath id="1e7d72b01a"><path d="M 63.3125 700.203125 L 187.023438 632.703125 L 254.527344 756.417969 L 130.8125 823.917969 Z M 63.3125 700.203125 " clip-rule="nonzero"/></clipPath><clipPath id="fd8a2283bf"><path d="M 63.3125 700.203125 L 187.023438 632.703125 L 254.527344 756.417969 L 130.8125 823.917969 Z M 63.3125 700.203125 " clip-rule="nonzero"/></clipPath><clipPath id="7f3d82e1d8"><path d="M 99 671 L 219 671 L 219 789 L 99 789 Z M 99 671 " clip-rule="nonzero"/></clipPath><clipPath id="310e4f1941"><path d="M 63.3125 700.203125 L 187.023438 632.703125 L 254.527344 756.417969 L 130.8125 823.917969 Z M 63.3125 700.203125 " clip-rule="nonzero"/></clipPath><clipPath id="35e15e1636"><path d="M 63.3125 700.203125 L 187.023438 632.703125 L 254.527344 756.417969 L 130.8125 823.917969 Z M 63.3125 700.203125 " clip-rule="nonzero"/></clipPath><clipPath id="b1a7bb479e"><path d="M 63.3125 700.203125 L 187.023438 632.703125 L 254.527344 756.417969 L 130.8125 823.917969 Z M 63.3125 700.203125 " clip-rule="nonzero"/></clipPath><clipPath id="82d4852a30"><path d="M 131 692 L 192 692 L 192 772 L 131 772 Z M 131 692 " clip-rule="nonzero"/></clipPath><clipPath id="976735fc41"><path d="M 63.3125 700.203125 L 187.023438 632.703125 L 254.527344 756.417969 L 130.8125 823.917969 Z M 63.3125 700.203125 " clip-rule="nonzero"/></clipPath><clipPath id="5d630dbd9c"><path d="M 63.3125 700.203125 L 187.023438 632.703125 L 254.527344 756.417969 L 130.8125 823.917969 Z M 63.3125 700.203125 " clip-rule="nonzero"/></clipPath><clipPath id="613327110d"><path d="M 63.3125 700.203125 L 187.023438 632.703125 L 254.527344 756.417969 L 130.8125 823.917969 Z M 63.3125 700.203125 " clip-rule="nonzero"/></clipPath><clipPath id="e9f3e59f21"><path d="M 129 688 L 190 688 L 190 768 L 129 768 Z M 129 688 " clip-rule="nonzero"/></clipPath><clipPath id="160cd22602"><path d="M 63.3125 700.203125 L 187.023438 632.703125 L 254.527344 756.417969 L 130.8125 823.917969 Z M 63.3125 700.203125 " clip-rule="nonzero"/></clipPath><clipPath id="c51b6a28d6"><path d="M 63.3125 700.203125 L 187.023438 632.703125 L 254.527344 756.417969 L 130.8125 823.917969 Z M 63.3125 700.203125 " clip-rule="nonzero"/></clipPath><clipPath id="73b7ad97aa"><path d="M 63.3125 700.203125 L 187.023438 632.703125 L 254.527344 756.417969 L 130.8125 823.917969 Z M 63.3125 700.203125 " clip-rule="nonzero"/></clipPath><clipPath id="e00faaf70b"><path d="M 88 691 L 118 691 L 118 720 L 88 720 Z M 88 691 " clip-rule="nonzero"/></clipPath><clipPath id="848b846f3c"><path d="M 63.3125 700.203125 L 187.023438 632.703125 L 254.527344 756.417969 L 130.8125 823.917969 Z M 63.3125 700.203125 " clip-rule="nonzero"/></clipPath><clipPath id="4a0e252a38"><path d="M 63.3125 700.203125 L 187.023438 632.703125 L 254.527344 756.417969 L 130.8125 823.917969 Z M 63.3125 700.203125 " clip-rule="nonzero"/></clipPath><clipPath id="267654262f"><path d="M 63.3125 700.203125 L 187.023438 632.703125 L 254.527344 756.417969 L 130.8125 823.917969 Z M 63.3125 700.203125 " clip-rule="nonzero"/></clipPath><clipPath id="2a7121406b"><path d="M 525 721 L 730 721 L 730 926 L 525 926 Z M 525 721 " clip-rule="nonzero"/></clipPath><clipPath id="c1e30349de"><path d="M 614.332031 680.1875 L 771.285156 810.34375 L 641.128906 967.296875 L 484.175781 837.140625 Z M 614.332031 680.1875 " clip-rule="nonzero"/></clipPath><clipPath id="fbdaab4b0d"><path d="M 614.332031 680.1875 L 771.285156 810.34375 L 641.128906 967.296875 L 484.175781 837.140625 Z M 614.332031 680.1875 " clip-rule="nonzero"/></clipPath><clipPath id="a1a0784dfe"><path d="M 614.332031 680.1875 L 771.285156 810.34375 L 641.128906 967.296875 L 484.175781 837.140625 Z M 614.332031 680.1875 " clip-rule="nonzero"/></clipPath><clipPath id="15fde8be68"><path d="M 541 737 L 715 737 L 715 911 L 541 911 Z M 541 737 " clip-rule="nonzero"/></clipPath><clipPath id="88836f396b"><path d="M 614.332031 680.1875 L 771.285156 810.34375 L 641.128906 967.296875 L 484.175781 837.140625 Z M 614.332031 680.1875 " clip-rule="nonzero"/></clipPath><clipPath id="1e2caf0e3e"><path d="M 614.332031 680.1875 L 771.285156 810.34375 L 641.128906 967.296875 L 484.175781 837.140625 Z M 614.332031 680.1875 " clip-rule="nonzero"/></clipPath><clipPath id="f65c7496f3"><path d="M 614.332031 680.1875 L 771.285156 810.34375 L 641.128906 967.296875 L 484.175781 837.140625 Z M 614.332031 680.1875 " clip-rule="nonzero"/></clipPath><clipPath id="dcd1ea4cf2"><path d="M 541 739 L 713 739 L 713 911 L 541 911 Z M 541 739 " clip-rule="nonzero"/></clipPath><clipPath id="3a016db308"><path d="M 614.332031 680.1875 L 771.285156 810.34375 L 641.128906 967.296875 L 484.175781 837.140625 Z M 614.332031 680.1875 " clip-rule="nonzero"/></clipPath><clipPath id="4e2e3c04da"><path d="M 614.332031 680.1875 L 771.285156 810.34375 L 641.128906 967.296875 L 484.175781 837.140625 Z M 614.332031 680.1875 " clip-rule="nonzero"/></clipPath><clipPath id="9409de9008"><path d="M 614.332031 680.1875 L 771.285156 810.34375 L 641.128906 967.296875 L 484.175781 837.140625 Z M 614.332031 680.1875 " clip-rule="nonzero"/></clipPath><clipPath id="87a501f735"><path d="M 576 777 L 671 777 L 671 880 L 576 880 Z M 576 777 " clip-rule="nonzero"/></clipPath><clipPath id="a2651842f5"><path d="M 614.332031 680.1875 L 771.285156 810.34375 L 641.128906 967.296875 L 484.175781 837.140625 Z M 614.332031 680.1875 " clip-rule="nonzero"/></clipPath><clipPath id="11ffa071cd"><path d="M 614.332031 680.1875 L 771.285156 810.34375 L 641.128906 967.296875 L 484.175781 837.140625 Z M 614.332031 680.1875 " clip-rule="nonzero"/></clipPath><clipPath id="26c127d702"><path d="M 614.332031 680.1875 L 771.285156 810.34375 L 641.128906 967.296875 L 484.175781 837.140625 Z M 614.332031 680.1875 " clip-rule="nonzero"/></clipPath><clipPath id="498160a101"><path d="M 580 772 L 675 772 L 675 875 L 580 875 Z M 580 772 " clip-rule="nonzero"/></clipPath><clipPath id="fb7b0933b5"><path d="M 614.332031 680.1875 L 771.285156 810.34375 L 641.128906 967.296875 L 484.175781 837.140625 Z M 614.332031 680.1875 " clip-rule="nonzero"/></clipPath><clipPath id="92d29270d4"><path d="M 614.332031 680.1875 L 771.285156 810.34375 L 641.128906 967.296875 L 484.175781 837.140625 Z M 614.332031 680.1875 " clip-rule="nonzero"/></clipPath><clipPath id="7cca17fd87"><path d="M 614.332031 680.1875 L 771.285156 810.34375 L 641.128906 967.296875 L 484.175781 837.140625 Z M 614.332031 680.1875 " clip-rule="nonzero"/></clipPath><clipPath id="322a698bb3"><path d="M 610 718 L 647 718 L 647 755 L 610 755 Z M 610 718 " clip-rule="nonzero"/></clipPath><clipPath id="ef76c3e326"><path d="M 614.332031 680.1875 L 771.285156 810.34375 L 641.128906 967.296875 L 484.175781 837.140625 Z M 614.332031 680.1875 " clip-rule="nonzero"/></clipPath><clipPath id="b6038d00d5"><path d="M 614.332031 680.1875 L 771.285156 810.34375 L 641.128906 967.296875 L 484.175781 837.140625 Z M 614.332031 680.1875 " clip-rule="nonzero"/></clipPath><clipPath id="22aff0ebbc"><path d="M 614.332031 680.1875 L 771.285156 810.34375 L 641.128906 967.296875 L 484.175781 837.140625 Z M 614.332031 680.1875 " clip-rule="nonzero"/></clipPath></defs><g clip-path="url(#bcc60018aa)"><g clip-path="url(#81e77d09c3)"><g clip-path="url(#cc630c6f4e)"><g clip-path="url(#f6bc4a7ad2)"><path fill="#ffd740" d="M 348.34375 739.152344 C 315.34375 745.144531 293.460938 776.757812 299.449219 809.746094 C 305.445312 842.75 337.046875 864.632812 370.046875 858.640625 C 403.039062 852.648438 424.929688 821.050781 418.9375 788.046875 C 412.945312 755.058594 381.335938 733.160156 348.34375 739.152344 " fill-opacity="1" fill-rule="nonzero"/></g></g></g></g><g clip-path="url(#473fb16dc1)"><g clip-path="url(#8cf9b4b71f)"><g clip-path="url(#4ca2df032d)"><g clip-path="url(#0f95898e16)"><path fill="#f57f17" d="M 349.972656 748.121094 C 321.929688 753.214844 303.320312 780.078125 308.414062 808.117188 C 313.507812 836.164062 340.371094 854.769531 368.417969 849.675781 C 396.457031 844.585938 415.066406 817.71875 409.972656 789.675781 C 404.878906 761.636719 378.011719 743.027344 349.972656 748.121094 " fill-opacity="1" fill-rule="nonzero"/></g></g></g></g><g clip-path="url(#8af0799145)"><g clip-path="url(#88a47657fb)"><g clip-path="url(#fbe5414a59)"><g clip-path="url(#ee7b5b8d0b)"><path fill="#ffab00" d="M 350.648438 751.847656 C 322.605469 756.941406 303.320312 780.078125 308.414062 808.117188 C 313.507812 836.164062 340.371094 854.769531 368.417969 849.675781 C 396.457031 844.585938 415.066406 817.71875 409.972656 789.675781 C 404.878906 761.636719 378.691406 746.753906 350.648438 751.847656 " fill-opacity="1" fill-rule="nonzero"/></g></g></g></g><g clip-path="url(#2f638c2c67)"><g clip-path="url(#ce932014da)"><g clip-path="url(#8efd99075f)"><g clip-path="url(#bf8f96c6d2)"><path fill="#f57f17" d="M 376.566406 800.847656 C 373.6875 798.453125 368.785156 796.960938 361.917969 796.382812 C 361.503906 796.339844 356.546875 795.722656 355.605469 795.484375 C 353.691406 795.046875 352.1875 794.289062 351.085938 793.199219 C 350.503906 792.621094 350.046875 792.003906 349.691406 791.324219 C 349.683594 791.296875 349.664062 791.257812 349.652344 791.222656 C 349.597656 791.136719 349.546875 791.035156 349.515625 790.945312 C 349.246094 790.394531 349.039062 789.800781 348.921875 789.171875 C 348.171875 785.042969 351.21875 781.042969 355.707031 780.226562 C 360.121094 779.425781 364.289062 781.996094 365.148438 786 L 375.234375 782.777344 L 374.554688 779.042969 L 370.761719 775.628906 L 370.761719 775.640625 C 370.074219 774.972656 369.335938 774.375 368.539062 773.851562 C 365.519531 771.878906 361.792969 771.011719 357.359375 771.28125 L 356.335938 765.65625 L 350.386719 766.738281 L 351.40625 772.363281 C 346.796875 773.683594 343.34375 776.125 341.066406 779.691406 C 338.792969 783.246094 338.0625 787.269531 338.875 791.75 C 339.679688 796.179688 341.625 799.707031 344.679688 802.367188 C 347.75 805.007812 352.09375 806.609375 357.730469 807.175781 C 358.636719 807.296875 363.425781 807.789062 364 807.859375 C 366.582031 808.117188 368.542969 808.8125 369.859375 809.9375 C 371.179688 811.074219 372.011719 812.554688 372.34375 814.390625 C 372.714844 816.433594 372.394531 818.339844 371.386719 820.089844 C 370.371094 821.832031 368.878906 823.089844 366.902344 823.84375 C 364.699219 824.644531 362.117188 824.792969 360.847656 824.347656 C 359.25 823.90625 357.699219 823 356.207031 821.640625 C 354.710938 820.265625 353.5625 818.53125 352.714844 816.417969 L 341.550781 815.789062 L 342.230469 819.519531 C 344.03125 824.753906 346.671875 828.574219 350.15625 830.992188 C 353.640625 833.40625 357.800781 834.472656 362.636719 834.1875 L 363.613281 839.5625 L 369.5625 838.484375 L 368.550781 832.902344 C 373.734375 831.171875 377.519531 828.347656 379.894531 824.40625 C 382.265625 820.476562 383.007812 816.03125 382.105469 811.078125 C 381.304688 806.660156 379.460938 803.242188 376.566406 800.847656 " fill-opacity="1" fill-rule="nonzero"/></g></g></g></g><g clip-path="url(#c4a13502aa)"><g clip-path="url(#65b4a87b0b)"><g clip-path="url(#a10527ecb3)"><g clip-path="url(#875f8668ce)"><path fill="#ffd740" d="M 361.238281 792.648438 C 360.824219 792.605469 355.867188 791.984375 354.929688 791.753906 C 353.015625 791.316406 351.507812 790.554688 350.40625 789.464844 C 349.828125 788.890625 349.367188 788.269531 349.011719 787.59375 C 349.007812 787.566406 348.988281 787.527344 348.972656 787.496094 C 348.917969 787.402344 348.871094 787.308594 348.835938 787.214844 C 348.566406 786.664062 348.359375 786.070312 348.246094 785.441406 C 347.496094 781.308594 350.542969 777.3125 355.03125 776.496094 C 359.441406 775.695312 363.613281 778.265625 364.472656 782.269531 L 374.554688 779.042969 C 373.101562 775.078125 370.863281 772.097656 367.863281 770.125 C 364.839844 768.148438 361.113281 767.28125 356.679688 767.550781 L 355.660156 761.925781 L 349.707031 763.003906 L 350.730469 768.632812 C 346.121094 769.957031 342.664062 772.394531 340.390625 775.960938 C 338.117188 779.515625 337.386719 783.539062 338.199219 788.015625 C 339.003906 792.449219 340.945312 795.980469 344 798.628906 C 347.074219 801.28125 351.417969 802.882812 357.054688 803.445312 C 357.960938 803.5625 362.746094 804.058594 363.324219 804.128906 C 365.902344 804.386719 367.863281 805.078125 369.179688 806.207031 C 370.5 807.34375 371.335938 808.824219 371.667969 810.65625 C 372.039062 812.699219 371.71875 814.605469 370.707031 816.359375 C 369.691406 818.101562 368.199219 819.355469 366.226562 820.109375 C 364.019531 820.914062 361.4375 821.0625 360.171875 820.617188 C 358.570312 820.171875 357.023438 819.269531 355.527344 817.90625 C 354.03125 816.535156 352.882812 814.804688 352.039062 812.6875 L 341.550781 815.789062 C 343.351562 821.019531 345.996094 824.84375 349.476562 827.261719 C 352.964844 829.671875 357.121094 830.742188 361.960938 830.457031 L 362.933594 835.832031 L 368.886719 834.75 L 367.871094 829.171875 C 373.058594 827.441406 376.839844 824.613281 379.21875 820.675781 C 381.589844 816.746094 382.328125 812.300781 381.429688 807.347656 C 380.625 802.929688 378.78125 799.511719 375.886719 797.113281 C 373.007812 794.722656 368.109375 793.230469 361.238281 792.648438 " fill-opacity="1" fill-rule="nonzero"/></g></g></g></g><g clip-path="url(#225fcfe6bf)"><g clip-path="url(#3b3055ca78)"><g clip-path="url(#85ce4e43fc)"><g clip-path="url(#558bd68937)"><path fill="#ffffff" d="M 333.597656 762.503906 C 323.613281 766.28125 322.355469 768.101562 322.328125 778.777344 C 318.550781 768.792969 316.730469 767.53125 306.054688 767.507812 C 316.039062 763.730469 317.296875 761.90625 317.328125 751.234375 C 321.101562 761.214844 322.921875 762.476562 333.597656 762.503906 " fill-opacity="1" fill-rule="nonzero"/></g></g></g></g><g transform="matrix(1, 0, 0, 1, 254, 266)"><g clip-path="url(#6132982c06)"><g clip-path="url(#70ecf53223)"><g transform="matrix(1, 0, 0, 1, -0.000000000000028422, 0)"><g clip-path="url(#e99364db59)"><g clip-path="url(#d0d8c2f02b)"><path fill="#939393" d="M 9.816406 532.988281 L 417.382812 574.429688 C 445.648438 528.007812 454.382812 198.660156 456.523438 88.761719 C 456.964844 66.445312 457.125 53.179688 457.125 53.179688 L 448.328125 89.621094 C 445.574219 142.414062 414.121094 449.546875 385.753906 482.359375 L 22.007812 494.988281 C 27.9375 454.609375 36.234375 376.070312 41.082031 333.828125 C 46.59375 285.953125 50.894531 241.625 54.519531 195.597656 L 46.886719 198.296875 L 10.917969 523.019531 Z M 9.816406 532.988281 " fill-opacity="1" fill-rule="nonzero"/></g><g clip-path="url(#4d9f996b02)"><path fill="#ebebeb" d="M 27.492188 335.304688 C 40.15625 224.195312 47.109375 112.726562 48.34375 0.902344 L 459.882812 31.242188 C 459.882812 31.242188 458.726562 53.4375 456.523438 88.761719 C 448.996094 210.617188 429.316406 488.683594 403.570312 549.757812 L 10.921875 523.023438 L 0.691406 522.320312 C 10.960938 462.882812 20.0625 400.492188 27.492188 335.304688 Z M 385.757812 482.359375 C 414.121094 449.546875 432.710938 113.640625 435.464844 60.84375 C 435.699219 56.316406 435.820312 53.867188 435.820312 53.867188 C 314.839844 44.554688 193.863281 35.246094 72.882812 25.9375 C 70.917969 79.929688 67.714844 135.449219 63.277344 192.507812 C 59.648438 238.535156 55.101562 285.496094 49.632812 333.386719 C 44.789062 375.625 39.382812 416.9375 33.421875 457.320312 Z M 385.757812 482.359375 " fill-opacity="1" fill-rule="nonzero"/></g></g></g></g><g clip-path="url(#7d8d8be3c1)"><g clip-path="url(#f80cfeb4f9)"><g clip-path="url(#9f8adc776a)"><g clip-path="url(#1cdd73dd5a)"><path fill="#f44336" d="M 53.960938 479.519531 C 50.78125 479.0625 47.746094 480.300781 45.753906 482.558594 C 44.476562 479.832031 41.914062 477.78125 38.738281 477.320312 C 33.691406 476.59375 29.003906 480.140625 28.269531 485.242188 C 26.941406 494.441406 42.347656 506.140625 42.347656 506.140625 C 42.347656 506.140625 60.425781 499.351562 61.761719 490.078125 C 62.5 484.976562 59.007812 480.246094 53.960938 479.519531 " fill-opacity="1" fill-rule="nonzero"/></g></g></g></g><g transform="matrix(1, 0, 0, 1, 73, 479)"><g clip-path="url(#0361320ea1)"><g fill="#000000" fill-opacity="1"><g transform="translate(2.561678, 24.408556)"><g><path d="M 16.0625 -7.484375 L 18.65625 -7.203125 L 18.15625 -2.75 L 15.5625 -3.03125 L 15.046875 1.671875 L 10.296875 1.140625 L 10.8125 -3.5625 L -0.171875 -4.78125 L 0 -6.296875 L 12.515625 -21.1875 L 17.53125 -20.625 Z M 12.015625 -14.375 L 11.953125 -14.375 L 7.296875 -8.453125 L 11.3125 -8.015625 Z M 12.015625 -14.375 "/></g></g></g><g fill="#000000" fill-opacity="1"><g transform="translate(19.205058, 26.257952)"><g><path d="M 2 -11.0625 C 2.40625 -14.726562 3.59375 -17.472656 5.5625 -19.296875 C 7.53125 -21.117188 9.789062 -21.890625 12.34375 -21.609375 C 14.90625 -21.328125 16.941406 -20.078125 18.453125 -17.859375 C 19.972656 -15.648438 20.53125 -12.710938 20.125 -9.046875 C 19.90625 -7.046875 19.46875 -5.3125 18.8125 -3.84375 C 18.15625 -2.382812 17.347656 -1.253906 16.390625 -0.453125 C 15.441406 0.335938 14.410156 0.894531 13.296875 1.21875 C 12.191406 1.539062 11.019531 1.632812 9.78125 1.5 C 8.539062 1.363281 7.421875 1.015625 6.421875 0.453125 C 5.421875 -0.109375 4.535156 -0.878906 3.765625 -1.859375 C 3.003906 -2.847656 2.460938 -4.128906 2.140625 -5.703125 C 1.828125 -7.273438 1.78125 -9.0625 2 -11.0625 Z M 7.125 -10.484375 C 6.863281 -8.117188 7.007812 -6.304688 7.5625 -5.046875 C 8.125 -3.785156 9.03125 -3.085938 10.28125 -2.953125 C 11.519531 -2.816406 12.550781 -3.300781 13.375 -4.40625 C 14.195312 -5.507812 14.738281 -7.242188 15 -9.609375 C 15.25 -11.847656 15.09375 -13.628906 14.53125 -14.953125 C 13.976562 -16.285156 13.085938 -17.019531 11.859375 -17.15625 C 10.640625 -17.289062 9.609375 -16.769531 8.765625 -15.59375 C 7.921875 -14.414062 7.375 -12.710938 7.125 -10.484375 Z M 7.125 -10.484375 "/></g></g></g><g fill="#000000" fill-opacity="1"><g transform="translate(37.496582, 28.290488)"><g><path d="M 19 -11.9375 L 11.65625 -6.03125 L 18.109375 2.015625 L 11.9375 1.328125 L 7 -4.84375 L 6.390625 0.703125 L 1.609375 0.171875 L 4.1875 -23.0625 L 8.96875 -22.53125 L 7.390625 -8.3125 L 12.796875 -12.625 Z M 19 -11.9375 "/></g></g></g></g></g></g></g><g transform="matrix(1, 0, 0, 1, 101, 121)"><g clip-path="url(#ada62ecb22)"><g clip-path="url(#63844e964b)"><g transform="matrix(1, 0, 0, 1, 1, 0)"><g clip-path="url(#1b895538a1)"><g clip-path="url(#1e99ba72a8)"><path fill="#939393" d="M 9.441406 543.492188 L 425.105469 585.753906 C 453.933594 538.40625 462.84375 202.519531 465.027344 90.4375 C 465.476562 67.675781 465.640625 54.148438 465.640625 54.148438 L 456.667969 91.3125 C 453.855469 145.15625 421.78125 458.386719 392.851562 491.855469 L 21.875 504.734375 C 27.921875 463.550781 36.386719 383.453125 41.328125 340.375 C 46.949219 291.546875 51.339844 246.339844 55.035156 199.394531 L 47.25 202.148438 L 10.566406 533.320312 Z M 9.441406 543.492188 " fill-opacity="1" fill-rule="nonzero"/></g><g clip-path="url(#70859847ba)"><path fill="#ebebeb" d="M 27.46875 341.878906 C 40.386719 228.558594 47.476562 114.875 48.734375 0.832031 L 468.449219 31.773438 C 468.449219 31.773438 467.269531 54.410156 465.027344 90.4375 C 457.347656 214.714844 437.277344 498.304688 411.019531 560.59375 L 10.570312 533.324219 L 0.132812 532.609375 C 10.609375 471.988281 19.894531 408.359375 27.46875 341.878906 Z M 392.851562 491.855469 C 421.78125 458.386719 440.738281 115.808594 443.546875 61.964844 C 443.789062 57.347656 443.910156 54.851562 443.910156 54.851562 C 320.527344 45.351562 197.144531 35.855469 73.761719 26.367188 C 71.757812 81.425781 68.492188 138.054688 63.964844 196.242188 C 60.261719 243.1875 55.625 291.078125 50.050781 339.921875 C 45.109375 383 39.597656 425.132812 33.515625 466.316406 Z M 392.851562 491.855469 " fill-opacity="1" fill-rule="nonzero"/></g></g></g></g><g clip-path="url(#79c7853e39)"><g clip-path="url(#67a9e0340d)"><g clip-path="url(#fc718ac0da)"><g clip-path="url(#e4c83eedec)"><path fill="#f44336" d="M 55.464844 488.957031 C 52.222656 488.492188 49.125 489.757812 47.09375 492.054688 C 45.789062 489.273438 43.179688 487.183594 39.9375 486.71875 C 34.792969 485.976562 30.011719 489.59375 29.261719 494.796875 C 27.90625 504.175781 43.621094 516.109375 43.621094 516.109375 C 43.621094 516.109375 62.054688 509.1875 63.421875 499.726562 C 64.171875 494.523438 60.609375 489.699219 55.464844 488.957031 " fill-opacity="1" fill-rule="nonzero"/></g></g></g></g><g transform="matrix(1, 0, 0, 1, 75, 488)"><g clip-path="url(#88f5e0b5ba)"><g fill="#000000" fill-opacity="1"><g transform="translate(2.494227, 25.321932)"><g><path d="M 16.375 -7.625 L 19.015625 -7.328125 L 18.515625 -2.796875 L 15.875 -3.09375 L 15.34375 1.703125 L 10.5 1.171875 L 11.03125 -3.625 L -0.15625 -4.875 L 0.015625 -6.421875 L 12.75 -21.59375 L 17.875 -21.03125 Z M 12.25 -14.640625 L 12.1875 -14.65625 L 7.421875 -8.625 L 11.53125 -8.15625 Z M 12.25 -14.640625 "/></g></g></g><g fill="#000000" fill-opacity="1"><g transform="translate(19.468278, 27.208072)"><g><path d="M 2.046875 -11.265625 C 2.460938 -15.003906 3.675781 -17.800781 5.6875 -19.65625 C 7.695312 -21.519531 10.003906 -22.304688 12.609375 -22.015625 C 15.222656 -21.734375 17.296875 -20.460938 18.828125 -18.203125 C 20.367188 -15.953125 20.929688 -12.957031 20.515625 -9.21875 C 20.285156 -7.175781 19.835938 -5.410156 19.171875 -3.921875 C 18.503906 -2.441406 17.6875 -1.289062 16.71875 -0.46875 C 15.75 0.34375 14.695312 0.914062 13.5625 1.25 C 12.4375 1.582031 11.238281 1.675781 9.96875 1.53125 C 8.707031 1.394531 7.566406 1.039062 6.546875 0.46875 C 5.523438 -0.101562 4.617188 -0.894531 3.828125 -1.90625 C 3.046875 -2.914062 2.492188 -4.21875 2.171875 -5.8125 C 1.859375 -7.40625 1.816406 -9.222656 2.046875 -11.265625 Z M 7.28125 -10.6875 C 7.007812 -8.269531 7.15625 -6.421875 7.71875 -5.140625 C 8.28125 -3.859375 9.203125 -3.148438 10.484375 -3.015625 C 11.742188 -2.867188 12.789062 -3.359375 13.625 -4.484375 C 14.457031 -5.609375 15.007812 -7.378906 15.28125 -9.796875 C 15.53125 -12.085938 15.367188 -13.90625 14.796875 -15.25 C 14.234375 -16.59375 13.328125 -17.332031 12.078125 -17.46875 C 10.835938 -17.613281 9.789062 -17.085938 8.9375 -15.890625 C 8.082031 -14.691406 7.53125 -12.957031 7.28125 -10.6875 Z M 7.28125 -10.6875 "/></g></g></g><g fill="#000000" fill-opacity="1"><g transform="translate(38.12322, 29.280991)"><g><path d="M 19.359375 -12.140625 L 11.890625 -6.140625 L 18.46875 2.046875 L 12.171875 1.359375 L 7.140625 -4.9375 L 6.515625 0.71875 L 1.640625 0.1875 L 4.28125 -23.515625 L 9.15625 -22.984375 L 7.53125 -8.484375 L 13.015625 -12.859375 Z M 19.359375 -12.140625 "/></g></g></g></g></g></g></g><g clip-path="url(#d16daa1877)"><g clip-path="url(#f7e7fbeddb)"><g clip-path="url(#7abf072f2b)"><g clip-path="url(#180b285bf4)"><path fill="#ffd740" d="M 125.171875 666.453125 C 91.003906 685.09375 78.425781 727.90625 97.0625 762.0625 C 115.707031 796.234375 158.503906 808.808594 192.671875 790.164062 C 226.832031 771.527344 239.421875 728.730469 220.773438 694.558594 C 202.140625 660.40625 159.328125 647.8125 125.171875 666.453125 " fill-opacity="1" fill-rule="nonzero"/></g></g></g></g><g clip-path="url(#a799b51e54)"><g clip-path="url(#7233a67a10)"><g clip-path="url(#1e7d72b01a)"><g clip-path="url(#fd8a2283bf)"><path fill="#f57f17" d="M 130.234375 675.738281 C 101.199219 691.582031 90.503906 727.964844 106.34375 756.996094 C 122.1875 786.035156 158.570312 796.730469 187.609375 780.886719 C 216.640625 765.046875 227.335938 728.664062 211.492188 699.625 C 195.652344 670.59375 159.269531 659.898438 130.234375 675.738281 " fill-opacity="1" fill-rule="nonzero"/></g></g></g></g><g clip-path="url(#7f3d82e1d8)"><g clip-path="url(#310e4f1941)"><g clip-path="url(#35e15e1636)"><g clip-path="url(#b1a7bb479e)"><path fill="#ffab00" d="M 132.339844 679.59375 C 103.304688 695.4375 90.503906 727.964844 106.34375 756.996094 C 122.1875 786.035156 158.570312 796.730469 187.609375 780.886719 C 216.640625 765.046875 227.335938 728.664062 211.492188 699.625 C 195.652344 670.59375 161.375 663.753906 132.339844 679.59375 " fill-opacity="1" fill-rule="nonzero"/></g></g></g></g><g clip-path="url(#82d4852a30)"><g clip-path="url(#976735fc41)"><g clip-path="url(#5d630dbd9c)"><g clip-path="url(#613327110d)"><path fill="#f57f17" d="M 178.769531 724.121094 C 174.722656 722.535156 168.78125 722.679688 161 724.546875 C 160.53125 724.648438 154.84375 725.777344 153.722656 725.859375 C 151.453125 726.078125 149.519531 725.789062 147.90625 724.992188 C 147.058594 724.566406 146.328125 724.054688 145.6875 723.433594 C 145.671875 723.410156 145.632812 723.371094 145.609375 723.339844 C 145.515625 723.261719 145.425781 723.167969 145.355469 723.082031 C 144.855469 722.574219 144.414062 721.996094 144.058594 721.34375 C 141.722656 717.066406 143.621094 711.550781 148.265625 709.015625 C 152.835938 706.519531 158.367188 707.832031 160.777344 711.933594 L 170.707031 704.699219 L 168.601562 700.835938 L 163.171875 698.457031 L 163.175781 698.46875 C 162.175781 697.988281 161.148438 697.597656 160.078125 697.308594 C 156.03125 696.238281 151.609375 696.644531 146.820312 698.558594 L 143.644531 692.734375 L 137.484375 696.097656 L 140.660156 701.917969 C 136.0625 705.058594 133.148438 709.007812 131.945312 713.765625 C 130.738281 718.511719 131.398438 723.210938 133.929688 727.847656 C 136.433594 732.4375 139.859375 735.617188 144.195312 737.425781 C 148.542969 739.21875 153.914062 739.398438 160.328125 737.964844 C 161.371094 737.765625 166.824219 736.5625 167.484375 736.429688 C 170.421875 735.773438 172.835938 735.824219 174.695312 736.582031 C 176.566406 737.351562 178.023438 738.683594 179.0625 740.582031 C 180.214844 742.695312 180.558594 744.910156 180.082031 747.207031 C 179.601562 749.5 178.414062 751.425781 176.515625 752.980469 C 174.378906 754.667969 171.585938 755.773438 170.03125 755.742188 C 168.105469 755.84375 166.066406 755.40625 163.925781 754.457031 C 161.777344 753.488281 159.878906 751.996094 158.175781 749.976562 L 145.648438 753.355469 L 147.753906 757.21875 C 151.648438 762.328125 155.953125 765.574219 160.675781 766.96875 C 165.394531 768.351562 170.363281 768.011719 175.585938 765.929688 L 178.625 771.5 L 184.785156 768.136719 L 181.632812 762.359375 C 186.714844 758.5625 189.851562 754.070312 191.035156 748.859375 C 192.210938 743.664062 191.40625 738.5 188.605469 733.371094 C 186.109375 728.796875 182.832031 725.703125 178.769531 724.121094 " fill-opacity="1" fill-rule="nonzero"/></g></g></g></g><g clip-path="url(#e9f3e59f21)"><g clip-path="url(#160cd22602)"><g clip-path="url(#c51b6a28d6)"><g clip-path="url(#73b7ad97aa)"><path fill="#ffd740" d="M 158.894531 720.683594 C 158.421875 720.785156 152.734375 721.910156 151.617188 722 C 149.347656 722.214844 147.410156 721.925781 145.796875 721.125 C 144.949219 720.707031 144.21875 720.191406 143.582031 719.574219 C 143.5625 719.542969 143.527344 719.507812 143.5 719.480469 C 143.40625 719.398438 143.320312 719.3125 143.25 719.222656 C 142.75 718.710938 142.304688 718.132812 141.949219 717.480469 C 139.617188 713.203125 141.515625 707.6875 146.160156 705.152344 C 150.730469 702.660156 156.261719 703.972656 158.667969 708.066406 L 168.601562 700.835938 C 165.550781 696.996094 162 694.53125 157.972656 693.449219 C 153.921875 692.378906 149.5 692.78125 144.714844 694.695312 L 141.535156 688.871094 L 135.375 692.230469 L 138.554688 698.058594 C 133.957031 701.199219 131.042969 705.148438 129.835938 709.90625 C 128.628906 714.648438 129.289062 719.347656 131.820312 723.984375 C 134.324219 728.574219 137.753906 731.753906 142.085938 733.558594 C 146.4375 735.359375 151.808594 735.539062 158.222656 734.101562 C 159.261719 733.902344 164.71875 732.699219 165.378906 732.570312 C 168.316406 731.910156 170.726562 731.957031 172.589844 732.71875 C 174.457031 733.492188 175.917969 734.816406 176.953125 736.714844 C 178.105469 738.832031 178.449219 741.046875 177.976562 743.347656 C 177.492188 745.636719 176.304688 747.5625 174.40625 749.113281 C 172.269531 750.804688 169.480469 751.910156 167.921875 751.882812 C 165.996094 751.976562 163.960938 751.546875 161.816406 750.589844 C 159.667969 749.625 157.773438 748.136719 156.066406 746.113281 L 145.648438 753.355469 C 149.539062 758.460938 153.847656 761.710938 158.566406 763.105469 C 163.285156 764.488281 168.257812 764.148438 173.480469 762.070312 L 176.515625 767.636719 L 182.675781 764.273438 L 179.523438 758.496094 C 184.605469 754.699219 187.742188 750.203125 188.925781 744.996094 C 190.105469 739.804688 189.296875 734.636719 186.5 729.507812 C 184.003906 724.933594 180.722656 721.839844 176.660156 720.257812 C 172.613281 718.671875 166.671875 718.816406 158.894531 720.683594 " fill-opacity="1" fill-rule="nonzero"/></g></g></g></g><g clip-path="url(#e00faaf70b)"><g clip-path="url(#848b846f3c)"><g clip-path="url(#4a0e252a38)"><g clip-path="url(#267654262f)"><path fill="#ffffff" d="M 117.445312 697.558594 C 107.824219 705.359375 107.101562 707.828125 110.96875 719.597656 C 103.160156 709.976562 100.695312 709.25 88.925781 713.117188 C 98.546875 705.3125 99.269531 702.847656 95.40625 691.078125 C 103.210938 700.695312 105.675781 701.421875 117.445312 697.558594 " fill-opacity="1" fill-rule="nonzero"/></g></g></g></g><g clip-path="url(#2a7121406b)"><g clip-path="url(#c1e30349de)"><g clip-path="url(#fbdaab4b0d)"><g clip-path="url(#a1a0784dfe)"><path fill="#ffd740" d="M 692.808594 745.265625 C 649.464844 709.320312 585.1875 715.332031 549.253906 758.664062 C 513.300781 802.019531 519.308594 866.273438 562.65625 902.222656 C 605.992188 938.160156 670.253906 932.171875 706.207031 888.820312 C 742.140625 845.488281 736.148438 781.203125 692.808594 745.265625 " fill-opacity="1" fill-rule="nonzero"/></g></g></g></g><g clip-path="url(#15fde8be68)"><g clip-path="url(#88836f396b)"><g clip-path="url(#1e2caf0e3e)"><g clip-path="url(#f65c7496f3)"><path fill="#f57f17" d="M 683.042969 757.046875 C 646.203125 726.496094 591.570312 731.597656 561.027344 768.429688 C 530.476562 805.269531 535.578125 859.898438 572.417969 890.449219 C 609.25 920.992188 663.882812 915.894531 694.433594 879.054688 C 724.976562 842.222656 719.875 787.589844 683.042969 757.046875 " fill-opacity="1" fill-rule="nonzero"/></g></g></g></g><g clip-path="url(#dcd1ea4cf2)"><g clip-path="url(#3a016db308)"><g clip-path="url(#4e2e3c04da)"><g clip-path="url(#9409de9008)"><path fill="#ffab00" d="M 678.984375 761.941406 C 642.144531 731.390625 591.570312 731.597656 561.027344 768.429688 C 530.476562 805.269531 535.578125 859.898438 572.417969 890.449219 C 609.25 920.992188 663.882812 915.894531 694.433594 879.054688 C 724.976562 842.222656 715.816406 792.484375 678.984375 761.941406 " fill-opacity="1" fill-rule="nonzero"/></g></g></g></g><g clip-path="url(#87a501f735)"><g clip-path="url(#a2651842f5)"><g clip-path="url(#11ffa071cd)"><g clip-path="url(#26c127d702)"><path fill="#f57f17" d="M 643.984375 848.179688 C 643.953125 841.894531 640.578125 833.984375 633.902344 824.527344 C 633.511719 823.949219 628.953125 816.910156 628.246094 815.445312 C 626.734375 812.515625 626.085938 809.757812 626.296875 807.164062 C 626.414062 805.792969 626.707031 804.539062 627.203125 803.34375 C 627.226562 803.3125 627.257812 803.242188 627.285156 803.1875 C 627.339844 803.023438 627.417969 802.851562 627.5 802.710938 C 627.914062 801.769531 628.453125 800.863281 629.136719 800.035156 C 633.636719 794.613281 642.070312 794.207031 647.964844 799.09375 C 653.761719 803.902344 654.960938 812.042969 650.738281 817.472656 L 665.777344 826.949219 L 669.84375 822.046875 L 670.132812 813.480469 L 670.121094 813.492188 C 670.234375 811.886719 670.207031 810.296875 670.019531 808.707031 C 669.292969 802.691406 666.378906 796.964844 661.246094 791.554688 L 667.371094 784.167969 L 659.554688 777.6875 L 653.429688 785.074219 C 646.75 780.574219 639.882812 778.773438 632.839844 779.699219 C 625.816406 780.613281 619.851562 784.019531 614.972656 789.90625 C 610.144531 795.726562 607.707031 802.035156 607.59375 808.832031 C 607.511719 815.632812 610.148438 822.949219 615.507812 830.804688 C 616.332031 832.101562 620.871094 838.785156 621.402344 839.601562 C 623.855469 843.199219 625.082031 846.46875 625.058594 849.375 C 625.023438 852.300781 624.015625 854.976562 622.015625 857.386719 C 619.792969 860.066406 617 861.714844 613.65625 862.304688 C 610.320312 862.882812 607.09375 862.320312 603.988281 860.601562 C 600.578125 858.628906 597.597656 855.472656 596.804688 853.359375 C 595.640625 850.828125 595.132812 847.855469 595.265625 844.464844 C 595.417969 841.0625 596.40625 837.710938 598.210938 834.339844 L 586.960938 819.308594 L 582.898438 824.210938 C 578.113281 832.179688 576.054688 839.703125 576.707031 846.792969 C 577.375 853.878906 580.492188 860.378906 586.085938 866.285156 L 580.226562 873.347656 L 588.042969 879.828125 L 594.121094 872.5 C 601.945312 877.296875 609.664062 879.109375 617.300781 877.910156 C 624.910156 876.710938 631.421875 872.863281 636.820312 866.355469 C 641.632812 860.550781 644.035156 854.488281 643.984375 848.179688 " fill-opacity="1" fill-rule="nonzero"/></g></g></g></g><g clip-path="url(#498160a101)"><g clip-path="url(#fb7b0933b5)"><g clip-path="url(#92d29270d4)"><g clip-path="url(#7cca17fd87)"><path fill="#ffd740" d="M 637.96875 819.625 C 637.578125 819.042969 633.023438 812.003906 632.304688 810.546875 C 630.800781 807.609375 630.152344 804.855469 630.363281 802.261719 C 630.476562 800.894531 630.773438 799.632812 631.261719 798.449219 C 631.292969 798.40625 631.320312 798.339844 631.347656 798.289062 C 631.40625 798.121094 631.476562 797.960938 631.558594 797.8125 C 631.980469 796.867188 632.515625 795.964844 633.203125 795.136719 C 637.703125 789.707031 646.132812 789.308594 652.027344 794.195312 C 657.824219 799.003906 659.023438 807.140625 654.804688 812.566406 L 669.84375 822.046875 C 673.371094 815.894531 674.785156 809.796875 674.082031 803.808594 C 673.355469 797.792969 670.445312 792.0625 665.308594 786.65625 L 671.4375 779.265625 L 663.621094 772.785156 L 657.492188 780.175781 C 650.808594 775.675781 643.945312 773.871094 636.902344 774.796875 C 629.878906 775.714844 623.917969 779.121094 619.039062 785.003906 C 614.210938 790.824219 611.769531 797.132812 611.664062 803.925781 C 611.574219 810.734375 614.207031 818.054688 619.570312 825.90625 C 620.398438 827.195312 624.933594 833.886719 625.464844 834.703125 C 627.921875 838.296875 629.148438 841.5625 629.121094 844.476562 C 629.085938 847.402344 628.082031 850.074219 626.085938 852.480469 C 623.859375 855.164062 621.066406 856.808594 617.71875 857.40625 C 614.382812 857.984375 611.15625 857.417969 608.054688 855.695312 C 604.640625 853.730469 601.660156 850.570312 600.867188 848.460938 C 599.707031 845.925781 599.195312 842.953125 599.332031 839.5625 C 599.484375 836.160156 600.46875 832.8125 602.273438 829.441406 L 586.960938 819.308594 C 582.183594 827.277344 580.117188 834.804688 580.773438 841.890625 C 581.441406 848.976562 584.554688 855.476562 590.148438 861.386719 L 584.292969 868.445312 L 592.109375 874.929688 L 598.1875 867.597656 C 606.011719 872.394531 613.730469 874.203125 621.363281 873.007812 C 628.976562 871.8125 635.488281 867.964844 640.882812 861.457031 C 645.699219 855.648438 648.101562 849.585938 648.050781 843.277344 C 648.019531 836.992188 644.644531 829.082031 637.96875 819.625 " fill-opacity="1" fill-rule="nonzero"/></g></g></g></g><g clip-path="url(#322a698bb3)"><g clip-path="url(#ef76c3e326)"><g clip-path="url(#b6038d00d5)"><g clip-path="url(#22aff0ebbc)"><path fill="#ffffff" d="M 646.867188 751.53125 C 631.226562 742.777344 627.523438 743.125 613.773438 754.621094 C 622.527344 738.980469 622.183594 735.277344 610.6875 721.53125 C 626.324219 730.28125 630.027344 729.933594 643.777344 718.441406 C 635.023438 734.078125 635.367188 737.78125 646.867188 751.53125 " fill-opacity="1" fill-rule="nonzero"/></g></g></g></g></svg>