<svg width="87" height="87" viewBox="0 0 87 87" fill="none" xmlns="http://www.w3.org/2000/svg">
<path d="M46.5557 0.0078125L46.5186 28.3877L57.3887 2.17188L62.9316 4.46973L51.9746 30.8945L72.3066 10.7715L76.5273 15.0352L56.4443 34.9121L82.5615 24.126L84.8516 29.6719L58.624 40.5039H87V46.5039H58.5557L84.8271 57.4072L82.5273 62.9482L56.2588 52.0459L76.3447 72.1826L72.0967 76.4199L52.0957 56.3691L62.9668 82.5205L57.4268 84.8232L46.4814 58.4922L46.4453 87.0078L40.4453 87L40.4814 58.6152L29.6104 84.8359L24.0684 82.5381L35.0244 56.1123L14.6934 76.2363L10.4727 71.9727L30.5547 52.0957L4.43945 62.8818L2.14941 57.3359L28.377 46.5039H0V40.5039H28.4473L2.17285 29.5996L4.47266 24.0586L30.7422 34.9609L10.6562 14.8242L14.9043 10.5869L34.9014 30.6348L24.0332 4.4873L29.5732 2.18457L40.5186 28.5176L40.5557 0L46.5557 0.0078125Z" fill="#FFA60D"/>
</svg>
